<?xml version="1.0" encoding="iso-8859-1"?>
<!-- Generator: Adobe Illustrator 19.0.0, SVG Export Plug-In . SVG Version: 6.00 Build 0)  -->
<svg version="1.1" id="Layer_1" xmlns="http://www.w3.org/2000/svg" xmlns:xlink="http://www.w3.org/1999/xlink" x="0px" y="0px"
	 viewBox="0 0 512 512" style="enable-background:new 0 0 512 512;" xml:space="preserve">
<path style="fill:#2BA5F7;" d="M342.777,74.936c-14.446-3.611-30.618-2.595-46.484,4.86c-28.072,13.209-22.501,33.654-9.573,58.224
	c8.668,16.478,7.517,35.417-1.432,50.316c-4.738,0.257-9.5,0.82-14.287,1.702c-60.612,11.189-100.668,69.402-89.479,130.013
	c1.09,5.925,2.644,11.667,4.591,17.164c-24.521,2.057-47.659,8.925-68.496,19.661c-13.809-7.113-26.688-15.952-38.294-26.284
	l0.012-0.012c46.349-57.796,13.112-80.922,1.787-103.57s25.476-42.469,33.972-84.925c8.423-42.089-54.258-65.435-55.396-65.864
	C75.16,57.417,94.393,41.6,116.527,30.056v0.012c25.476,13.332,54.466,20.873,85.231,20.873c30.74,0,59.73-7.541,85.206-20.861
	C308.241,41.209,327.254,56.45,342.777,74.936z"/>
<path style="fill:#2197D8;" d="M191.091,356.876c-13.822-7.101-26.7-15.939-38.306-26.272
	c-29.504-26.247-50.818-62.142-58.543-103.986c-10.259-55.568,5.607-109.924,38.906-150.397
	c15.462-18.804,34.695-34.621,56.829-46.166c14.993-7.831,31.329-13.671,48.704-17.188c-22.534-4.623-46.316-5.074-70.332-0.637
	c-18.547,3.428-35.931,9.525-51.822,17.825C94.393,41.6,75.16,57.417,59.698,76.221c-33.299,40.473-49.165,94.829-38.906,150.397
	c7.725,41.844,29.039,77.739,58.543,103.986c11.606,10.333,24.485,19.171,38.306,26.272c34.94,17.996,75.902,24.987,117.538,17.298
	c1.058-0.196,2.098-0.43,3.149-0.643C221.774,370.138,205.891,364.5,191.091,356.876z"/>
<path style="fill:#CCCCCC;" d="M191.095,356.876c14.801,7.627,30.679,13.258,47.231,16.662c-1.053,0.208-2.093,0.441-3.146,0.637
	c-41.636,7.688-82.599,0.698-117.538-17.298c14.642-7.541,30.41-13.173,46.998-16.576
	C172.964,346.568,181.815,352.114,191.095,356.876z"/>
<g>
	<path style="fill:#F2F2F2;" d="M286.964,30.08c-25.476,13.32-54.466,20.861-85.206,20.861c-30.765,0-59.755-7.541-85.231-20.873
		v-0.012c15.891-8.3,33.275-14.397,51.822-17.825C210.425,4.457,251.792,11.668,286.964,30.08z"/>
	<path style="fill:#F2F2F2;" d="M210.707,377.027c-33.066,1.653-65.019-5.693-93.09-20.151
		c20.836-10.736,43.974-17.604,68.496-19.661C191.499,352.408,199.983,365.874,210.707,377.027z"/>
</g>
<path style="fill:#9AD14B;" d="M59.698,76.222c1.139,0.428,63.819,23.775,55.396,65.864c-8.496,42.456-45.297,62.277-33.972,84.925
	s44.562,45.774-1.787,103.57l-0.012,0.012c-29.492-26.235-50.793-62.142-58.53-103.974C10.533,171.05,26.399,116.695,59.698,76.222z
	"/>
<path style="fill:#F7B239;" d="M489.819,472.921c5.974,5.974,5.974,15.658,0,21.632l-3.783,3.783
	c-5.974,5.974-15.658,5.974-21.632,0l-68.569-68.569c-5.974-5.974-5.974-15.658,0-21.632l3.783-3.783
	c5.974-5.974,15.658-5.974,21.632,0L489.819,472.921z"/>
<path style="fill:#F95428;" d="M401.014,279.517c6.929,37.51-5.778,74.09-30.826,99.187c-15.425,15.462-35.552,26.554-58.653,30.826
	c-38.331,7.076-75.706-6.341-100.828-32.503c-10.724-11.153-19.208-24.619-24.595-39.812c-1.947-5.497-3.501-11.238-4.591-17.164
	C170.332,259.44,210.389,201.228,271,190.038c4.787-0.881,9.549-1.445,14.287-1.702c23.579-1.298,46.251,4.958,65.276,16.907
	c11.887,7.456,22.342,17.115,30.728,28.549C390.95,246.94,397.855,262.402,401.014,279.517z M305.009,374.187
	c41.085-7.59,68.251-47.047,60.661-88.145c-1.824-9.843-5.472-18.902-10.541-26.86c-16.062-25.256-46.362-39.567-77.604-33.801
	c-14.348,2.657-27.007,9.194-37.07,18.339c-18.755,17.017-28.525,43.068-23.591,69.806
	C224.455,354.611,263.912,381.777,305.009,374.187z"/>
<g>
	<path style="fill:#2BA5F7;" d="M365.67,286.042c7.59,41.097-19.575,80.554-60.661,88.145c-41.097,7.59-80.554-19.575-88.145-60.661
		c-4.934-26.737,4.836-52.789,23.591-69.806c0,0-3.122,65.484,45.847,77.726c48.969,12.242,68.826-62.264,68.826-62.264
		C360.198,267.14,363.846,276.2,365.67,286.042z"/>
	<path style="fill:#2BA5F7;" d="M383.985,167.5c3.22,22.685,2.13,45.076-2.693,66.292c-8.386-11.434-18.841-21.093-30.728-28.549
		c3.918-5.631,8.57-10.761,13.944-15.18C371.424,184.358,378.61,176.89,383.985,167.5z"/>
</g>
<path style="fill:#9AD14B;" d="M382.736,159.787c0.477,2.571,0.894,5.142,1.249,7.713c-5.374,9.39-12.561,16.858-19.478,22.563
	c-5.374,4.419-10.026,9.549-13.944,15.18c-19.025-11.948-41.697-18.204-65.276-16.907c8.949-14.899,10.1-33.838,1.432-50.316
	c-12.928-24.57-18.498-45.015,9.573-58.224c15.866-7.456,32.038-8.472,46.484-4.86C362.597,98.502,376.749,127.358,382.736,159.787z
	"/>
<path style="fill:#CCCCCC;" d="M163.452,46.95c-16.576-3.501-32.32-9.243-46.925-16.882v-0.012
	c15.891-8.3,33.275-14.397,51.822-17.825c3.526-0.649,7.052-1.2,10.577-1.64c2.106-0.257,4.211-0.49,6.317-0.686
	c2.803-0.257,5.595-0.441,8.386-0.575c3.575-0.159,7.137-0.22,10.688-0.171c2.338,0.037,4.664,0.11,6.978,0.22
	c2.326,0.122,4.64,0.282,6.941,0.49c1.53,0.135,3.061,0.294,4.591,0.465c0.759,0.086,1.518,0.184,2.289,0.282
	c2.277,0.294,4.554,0.624,6.819,1.004c2.253,0.367,4.505,0.796,6.745,1.249c-17.372,3.514-33.715,9.353-48.7,17.188
	C180.591,34.953,171.728,40.609,163.452,46.95z"/>
<path style="fill:#90BC42;" d="M81.122,227.022c11.336,22.648,44.574,45.762-1.775,103.57l-0.012,0.012
	c-29.504-26.247-50.818-62.142-58.543-103.986C10.533,171.05,26.399,116.695,59.698,76.221c0,0,35.16,12.867,49.838,36.862
	c-11.606,23.946-18.106,50.548-18.351,78.167C82.077,204.68,75.356,215.49,81.122,227.022z"/>
<path style="fill:#9AD14B;" d="M355.129,259.183c0,0-19.857,74.507-68.826,62.264s-45.847-77.726-45.847-77.726
	c10.063-9.145,22.722-15.682,37.07-18.339C308.768,219.616,339.068,233.927,355.129,259.183z"/>
<path style="fill:#4D4D4D;" d="M297.125,332.016c-4.257,0-8.61-0.551-13.049-1.661c-23.342-5.836-39.892-23.034-47.859-49.736
	c-5.722-19.18-4.968-36.602-4.932-37.334l18.341,0.874c-0.006,0.137-0.616,15.418,4.32,31.65
	c6.133,20.17,17.77,32.529,34.583,36.732c16.082,4.02,30.5-3.592,42.846-22.629c10.175-15.692,14.835-32.92,14.881-33.092
	L364,261.549c-0.218,0.818-5.475,20.243-17.218,38.354C333.036,321.104,316.057,332.016,297.125,332.016z"/>
<g>
	<path style="fill:#333333;" d="M291.233,384.637c-40.102,0.004-75.855-28.621-83.396-69.441
		c-5.373-29.112,4.515-58.373,26.448-78.274c11.634-10.574,26.01-17.686,41.569-20.567c34.205-6.317,68.363,8.563,87.022,37.901
		c5.841,9.169,9.818,19.301,11.821,30.114c8.497,46.008-22.015,90.347-68.021,98.847
		C301.495,384.174,296.326,384.636,291.233,384.637z M291.423,233.288c-4.049,0-8.136,0.368-12.23,1.124
		c-12.191,2.257-23.453,7.827-32.562,16.105c-17.196,15.603-24.945,38.534-20.736,61.345c6.66,36.044,41.396,59.958,77.448,53.297
		c36.046-6.659,59.957-41.402,53.299-77.447c-1.572-8.48-4.686-16.421-9.256-23.595c-0.001-0.001-0.002-0.004-0.004-0.005
		C334.995,244.633,313.884,233.288,291.423,233.288z"/>
	<path style="fill:#333333;" d="M496.313,466.424l-68.565-68.563c-7.949-7.949-20.041-9.254-29.382-3.962l-15.488-15.488
		c22.93-26.769,34.048-63.277,27.164-100.558c-3.145-17.033-9.749-32.569-18.94-46.031c4.423-21.572,5.089-43.622,1.973-65.578
		c-0.371-2.682-0.814-5.418-1.316-8.124c-6.065-32.857-20.574-63.666-41.956-89.088C305.122,15.812,234.957-9.413,166.678,3.201
		C61.915,22.539-7.581,123.511,11.759,228.286c10.956,59.28,48.006,109.124,101.649,136.753
		c27.316,14.069,57.622,21.397,88.208,21.397c1.827,0,3.656-0.033,5.483-0.086c22.122,21.45,52.145,34.234,84.114,34.234
		c7.25,0,14.605-0.659,21.985-2.02c21.745-4.015,41.056-13.661,56.714-27.146l15.458,15.458c-2.075,3.645-3.2,7.77-3.2,12.077
		c0,6.541,2.546,12.689,7.17,17.313l68.564,68.563c4.624,4.624,10.773,7.17,17.313,7.17c6.541,0,12.689-2.548,17.313-7.17
		l3.779-3.778c0,0,0.001,0,0.001-0.001C505.858,491.504,505.858,475.971,496.313,466.424z M376.621,191.535
		c0.08,7.271-0.298,14.522-1.131,21.731c-3.673-3.565-7.567-6.888-11.649-9.955c2.04-2.218,4.213-4.279,6.507-6.166
		C372.548,195.328,374.636,193.456,376.621,191.535z M373.705,161.461c0.255,1.37,0.486,2.745,0.705,4.118
		c-3.984,6.212-9.267,12.053-15.737,17.39c-3.769,3.1-7.278,6.564-10.494,10.342c-14.905-7.986-31.534-12.901-48.902-14.057
		c4.535-14.978,3.096-31.197-4.433-45.512c-5.975-11.355-11.693-24.134-8.784-32.815c1.653-4.93,6.278-9.127,14.135-12.824
		c12.109-5.689,25.001-7.359,37.474-4.899C355.948,105.743,368.4,132.722,373.705,161.461z M170.012,21.258
		c32.234-5.955,64.927-2.572,94.575,8.848c-19.945,7.654-41.334,11.657-62.831,11.657c-21.537,0-42.962-4.018-62.936-11.698
		C148.754,26.237,159.171,23.26,170.012,21.258z M116.687,40.429c26.296,12.894,55.596,19.699,85.069,19.699
		c29.453,0,58.73-6.794,85.011-19.67c11.737,6.52,22.771,14.413,32.84,23.585c-9.237,0.82-18.406,3.301-27.228,7.446
		c-12.64,5.947-20.403,13.67-23.733,23.607c-5.092,15.198,1.77,31.667,9.943,47.2c6.196,11.78,6.464,25.409,0.943,37.28
		c-3.389,0.333-6.79,0.803-10.198,1.432c-65.493,12.093-108.937,75.215-96.844,140.709c0.476,2.579,1.059,5.112,1.691,7.621
		c-19.633,2.792-38.553,8.551-56.431,17.207c-9.212-5.047-17.857-10.831-25.868-17.27c14.762-20.25,21.486-38.481,20.47-55.525
		c-1.009-16.929-9.449-29.606-16.23-39.79c-2.61-3.92-5.076-7.623-6.79-11.051c-3.308-6.617,0.531-13.407,10.763-28.461
		c8.767-12.897,19.677-28.947,24.001-50.567c7.454-37.273-29.216-60.995-49.155-70.942C87.017,60.172,101.048,49.154,116.687,40.429
		z M191.457,367.757c-17.507-1.026-34.786-4.706-51.222-10.892c12.834-4.833,26.174-8.108,39.885-9.79
		C183.238,354.406,187.056,361.314,191.457,367.757z M29.816,224.951c-9.288-50.323,4.069-99.676,32.824-137.53
		c14.415,6.581,48.937,25.422,43.45,52.859c-3.594,17.973-12.936,31.717-21.182,43.845c-10.519,15.474-20.454,30.09-12.001,46.997
		c2.222,4.446,4.994,8.609,7.929,13.016c11.702,17.575,23.771,35.713-2.698,72.836C53.333,292.287,36.385,260.496,29.816,224.951z
		 M309.864,400.504c-55.538,10.255-109.062-26.585-119.317-82.121c-10.254-55.536,26.587-109.062,82.121-119.316
		c55.535-10.255,109.063,26.584,119.318,82.121C402.24,336.724,365.401,390.25,309.864,400.504z M483.328,488.065l-3.78,3.779
		c-1.156,1.156-2.692,1.792-4.328,1.792c-1.636,0-3.172-0.637-4.328-1.792l-68.564-68.563c-1.156-1.156-1.792-2.693-1.792-4.328
		s0.637-3.172,1.793-4.329l3.777-3.777c1.195-1.194,2.762-1.79,4.329-1.79s3.135,0.596,4.328,1.79l68.564,68.563
		C485.713,481.794,485.713,485.678,483.328,488.065z"/>
</g>
<g>
	<path style="fill:#FFFFFF;" d="M335.566,300.804c-4.339,0-8.197-3.089-9.016-7.509c-0.855-4.607-2.533-8.898-4.99-12.754
		c-6.53-10.268-18.104-16.642-30.21-16.642c-2.189,0-4.405,0.204-6.585,0.607c-4.981,0.918-9.774-2.375-10.695-7.363
		c-0.921-4.986,2.375-9.775,7.363-10.696c3.277-0.605,6.613-0.912,9.919-0.912c18.327,0,35.838,9.635,45.702,25.146
		c3.725,5.847,6.268,12.332,7.554,19.266c0.926,4.986-2.368,9.778-7.354,10.702C336.685,300.754,336.123,300.804,335.566,300.804z"
		/>
	<path style="fill:#FFFFFF;" d="M353.67,180.984c-4.513,0-8.446-3.327-9.083-7.924c-0.286-2.07-0.604-4.031-0.97-5.995
		c-4.536-24.575-15.357-47.572-31.291-66.517c-12.221-14.555-26.958-26.399-43.802-35.21c-11.887-6.223-24.45-10.745-37.343-13.442
		c-4.964-1.038-8.145-5.904-7.107-10.867c1.039-4.964,5.906-8.142,10.867-7.107c14.549,3.043,28.711,8.14,42.095,15.146
		c18.978,9.926,35.581,23.271,49.348,39.666c17.974,21.369,30.177,47.301,35.288,74.987c0.416,2.234,0.777,4.47,1.102,6.823
		c0.695,5.023-2.813,9.659-7.835,10.355C354.515,180.956,354.09,180.984,353.67,180.984z"/>
	<circle style="fill:#FFFFFF;" cx="202.181" cy="39.717" r="9.182"/>
</g>
<g>
</g>
<g>
</g>
<g>
</g>
<g>
</g>
<g>
</g>
<g>
</g>
<g>
</g>
<g>
</g>
<g>
</g>
<g>
</g>
<g>
</g>
<g>
</g>
<g>
</g>
<g>
</g>
<g>
</g>
</svg>
