<svg xmlns="http://www.w3.org/2000/svg" viewBox="0 0 512 512"><path d="M342.777 74.936c-14.446-3.611-30.618-2.595-46.484 4.86-28.072 13.209-22.501 33.654-9.573 58.224 8.668 16.478 7.517 35.417-1.432 50.316-4.738.257-9.5.82-14.287 1.702-60.612 11.189-100.668 69.402-89.479 130.013a112.292 112.292 0 0 0 4.591 17.164 182.607 182.607 0 0 0-68.496 19.661 185.083 185.083 0 0 1-38.294-26.284l.012-.012c46.349-57.796 13.112-80.922 1.787-103.57s25.476-42.469 33.972-84.925c8.423-42.089-54.258-65.435-55.396-65.864C75.16 57.417 94.393 41.6 116.527 30.056v.012c25.476 13.332 54.466 20.873 85.231 20.873 30.74 0 59.73-7.541 85.206-20.861a184.75 184.75 0 0 1 55.813 44.856z" fill="#2ba5f7"/><path d="M191.091 356.876a184.26 184.26 0 0 1-38.306-26.272c-29.504-26.247-50.818-62.142-58.543-103.986-10.259-55.568 5.607-109.924 38.906-150.397 15.462-18.804 34.695-34.621 56.829-46.166 14.993-7.831 31.329-13.671 48.704-17.188-22.534-4.623-46.316-5.074-70.332-.637-18.547 3.428-35.931 9.525-51.822 17.825C94.393 41.6 75.16 57.417 59.698 76.221c-33.299 40.473-49.165 94.829-38.906 150.397 7.725 41.844 29.039 77.739 58.543 103.986a184.287 184.287 0 0 0 38.306 26.272c34.94 17.996 75.902 24.987 117.538 17.298 1.058-.196 2.098-.43 3.149-.643a183.7 183.7 0 0 1-47.237-16.655z" fill="#2197d8"/><path d="M191.095 356.876a184.015 184.015 0 0 0 47.231 16.662c-1.053.208-2.093.441-3.146.637-41.636 7.688-82.599.698-117.538-17.298a182.805 182.805 0 0 1 46.998-16.576 182.543 182.543 0 0 0 26.455 16.575z" fill="#ccc"/><path d="M286.964 30.08c-25.476 13.32-54.466 20.861-85.206 20.861-30.765 0-59.755-7.541-85.231-20.873v-.012c15.891-8.3 33.275-14.397 51.822-17.825 42.076-7.774 83.443-.563 118.615 17.849zm-76.257 346.947c-33.066 1.653-65.019-5.693-93.09-20.151a182.596 182.596 0 0 1 68.496-19.661 110.766 110.766 0 0 0 24.594 39.812z" fill="#f2f2f2"/><path d="M59.698 76.222c1.139.428 63.819 23.775 55.396 65.864-8.496 42.456-45.297 62.277-33.972 84.925s44.562 45.774-1.787 103.57l-.012.012c-29.492-26.235-50.793-62.142-58.53-103.974-10.26-55.569 5.606-109.924 38.905-150.397z" fill="#9ad14b"/><path d="M489.819 472.921c5.974 5.974 5.974 15.658 0 21.632l-3.783 3.783c-5.974 5.974-15.658 5.974-21.632 0l-68.569-68.569c-5.974-5.974-5.974-15.658 0-21.632l3.783-3.783c5.974-5.974 15.658-5.974 21.632 0l68.569 68.569z" fill="#f7b239"/><path d="M401.014 279.517c6.929 37.51-5.778 74.09-30.826 99.187-15.425 15.462-35.552 26.554-58.653 30.826-38.331 7.076-75.706-6.341-100.828-32.503a110.782 110.782 0 0 1-24.595-39.812 112.261 112.261 0 0 1-4.591-17.164C170.332 259.44 210.389 201.228 271 190.038a112.53 112.53 0 0 1 14.287-1.702c23.579-1.298 46.251 4.958 65.276 16.907a111.694 111.694 0 0 1 30.728 28.549c9.659 13.148 16.564 28.61 19.723 45.725zm-96.005 94.67c41.085-7.59 68.251-47.047 60.661-88.145-1.824-9.843-5.472-18.902-10.541-26.86-16.062-25.256-46.362-39.567-77.604-33.801-14.348 2.657-27.007 9.194-37.07 18.339-18.755 17.017-28.525 43.068-23.591 69.806 7.591 41.085 47.048 68.251 88.145 60.661z" fill="#f95428"/><path d="M365.67 286.042c7.59 41.097-19.575 80.554-60.661 88.145-41.097 7.59-80.554-19.575-88.145-60.661-4.934-26.737 4.836-52.789 23.591-69.806 0 0-3.122 65.484 45.847 77.726 48.969 12.242 68.826-62.264 68.826-62.264 5.07 7.958 8.718 17.018 10.542 26.86zM383.985 167.5c3.22 22.685 2.13 45.076-2.693 66.292a111.694 111.694 0 0 0-30.728-28.549c3.918-5.631 8.57-10.761 13.944-15.18 6.916-5.705 14.102-13.173 19.477-22.563z" fill="#2ba5f7"/><path d="M382.736 159.787a169 169 0 0 1 1.249 7.713c-5.374 9.39-12.561 16.858-19.478 22.563-5.374 4.419-10.026 9.549-13.944 15.18-19.025-11.948-41.697-18.204-65.276-16.907 8.949-14.899 10.1-33.838 1.432-50.316-12.928-24.57-18.498-45.015 9.573-58.224 15.866-7.456 32.038-8.472 46.484-4.86 19.821 23.566 33.973 52.422 39.96 84.851z" fill="#9ad14b"/><path d="M163.452 46.95a182.605 182.605 0 0 1-46.925-16.882v-.012c15.891-8.3 33.275-14.397 51.822-17.825 3.526-.649 7.052-1.2 10.577-1.64 2.106-.257 4.211-.49 6.317-.686 2.803-.257 5.595-.441 8.386-.575 3.575-.159 7.137-.22 10.688-.171a220.4 220.4 0 0 1 6.978.22c2.326.122 4.64.282 6.941.49 1.53.135 3.061.294 4.591.465.759.086 1.518.184 2.289.282 2.277.294 4.554.624 6.819 1.004 2.253.367 4.505.796 6.745 1.249-17.372 3.514-33.715 9.353-48.7 17.188a181.824 181.824 0 0 0-26.528 16.893z" fill="#ccc"/><path d="M81.122 227.022c11.336 22.648 44.574 45.762-1.775 103.57l-.012.012c-29.504-26.247-50.818-62.142-58.543-103.986-10.259-55.568 5.607-109.923 38.906-150.397 0 0 35.16 12.867 49.838 36.862-11.606 23.946-18.106 50.548-18.351 78.167-9.108 13.43-15.829 24.24-10.063 35.772z" fill="#90bc42"/><path d="M355.129 259.183s-19.857 74.507-68.826 62.264-45.847-77.726-45.847-77.726c10.063-9.145 22.722-15.682 37.07-18.339 31.242-5.766 61.542 8.545 77.603 33.801z" fill="#9ad14b"/><path d="M297.125 332.016c-4.257 0-8.61-.551-13.049-1.661-23.342-5.836-39.892-23.034-47.859-49.736-5.722-19.18-4.968-36.602-4.932-37.334l18.341.874c-.006.137-.616 15.418 4.32 31.65 6.133 20.17 17.77 32.529 34.583 36.732 16.082 4.02 30.5-3.592 42.846-22.629 10.175-15.692 14.835-32.92 14.881-33.092L364 261.549c-.218.818-5.475 20.243-17.218 38.354-13.746 21.201-30.725 32.113-49.657 32.113z" fill="#4d4d4d"/><g fill="#333"><path d="M291.233 384.637c-40.102.004-75.855-28.621-83.396-69.441-5.373-29.112 4.515-58.373 26.448-78.274 11.634-10.574 26.01-17.686 41.569-20.567 34.205-6.317 68.363 8.563 87.022 37.901 5.841 9.169 9.818 19.301 11.821 30.114 8.497 46.008-22.015 90.347-68.021 98.847a85.1 85.1 0 0 1-15.443 1.42zm.19-151.349c-4.049 0-8.136.368-12.23 1.124-12.191 2.257-23.453 7.827-32.562 16.105-17.196 15.603-24.945 38.534-20.736 61.345 6.66 36.044 41.396 59.958 77.448 53.297 36.046-6.659 59.957-41.402 53.299-77.447-1.572-8.48-4.686-16.421-9.256-23.595l-.004-.005c-12.387-19.479-33.498-30.824-55.959-30.824z"/><path d="M496.313 466.424l-68.565-68.563c-7.949-7.949-20.041-9.254-29.382-3.962l-15.488-15.488c22.93-26.769 34.048-63.277 27.164-100.558-3.145-17.033-9.749-32.569-18.94-46.031 4.423-21.572 5.089-43.622 1.973-65.578a179.951 179.951 0 0 0-1.316-8.124c-6.065-32.857-20.574-63.666-41.956-89.088-44.681-53.22-114.846-78.445-183.125-65.831C61.915 22.539-7.581 123.511 11.759 228.286c10.956 59.28 48.006 109.124 101.649 136.753 27.316 14.069 57.622 21.397 88.208 21.397 1.827 0 3.656-.033 5.483-.086 22.122 21.45 52.145 34.234 84.114 34.234 7.25 0 14.605-.659 21.985-2.02 21.745-4.015 41.056-13.661 56.714-27.146l15.458 15.458a24.326 24.326 0 0 0-3.2 12.077c0 6.541 2.546 12.689 7.17 17.313l68.564 68.563c4.624 4.624 10.773 7.17 17.313 7.17 6.541 0 12.689-2.548 17.313-7.17l3.779-3.778.001-.001c9.548-9.546 9.548-25.079.003-34.626zM376.621 191.535c.08 7.271-.298 14.522-1.131 21.731a121.596 121.596 0 0 0-11.649-9.955 64.628 64.628 0 0 1 6.507-6.166c2.2-1.817 4.288-3.689 6.273-5.61zm-2.916-30.074c.255 1.37.486 2.745.705 4.118-3.984 6.212-9.267 12.053-15.737 17.39a83.233 83.233 0 0 0-10.494 10.342c-14.905-7.986-31.534-12.901-48.902-14.057 4.535-14.978 3.096-31.197-4.433-45.512-5.975-11.355-11.693-24.134-8.784-32.815 1.653-4.93 6.278-9.127 14.135-12.824 12.109-5.689 25.001-7.359 37.474-4.899 18.279 22.539 30.731 49.518 36.036 78.257zM170.012 21.258c32.234-5.955 64.927-2.572 94.575 8.848-19.945 7.654-41.334 11.657-62.831 11.657-21.537 0-42.962-4.018-62.936-11.698a175.119 175.119 0 0 1 31.192-8.807zm-53.325 19.171c26.296 12.894 55.596 19.699 85.069 19.699 29.453 0 58.73-6.794 85.011-19.67a174.84 174.84 0 0 1 32.84 23.585c-9.237.82-18.406 3.301-27.228 7.446-12.64 5.947-20.403 13.67-23.733 23.607-5.092 15.198 1.77 31.667 9.943 47.2 6.196 11.78 6.464 25.409.943 37.28-3.389.333-6.79.803-10.198 1.432-65.493 12.093-108.937 75.215-96.844 140.709.476 2.579 1.059 5.112 1.691 7.621a190.691 190.691 0 0 0-56.431 17.207 177.075 177.075 0 0 1-25.868-17.27c14.762-20.25 21.486-38.481 20.47-55.525-1.009-16.929-9.449-29.606-16.23-39.79-2.61-3.92-5.076-7.623-6.79-11.051-3.308-6.617.531-13.407 10.763-28.461 8.767-12.897 19.677-28.947 24.001-50.567 7.454-37.273-29.216-60.995-49.155-70.942 12.076-12.767 26.107-23.785 41.746-32.51zm74.77 327.328a174.446 174.446 0 0 1-51.222-10.892 172.586 172.586 0 0 1 39.885-9.79 119.77 119.77 0 0 0 11.337 20.682zM29.816 224.951c-9.288-50.323 4.069-99.676 32.824-137.53 14.415 6.581 48.937 25.422 43.45 52.859-3.594 17.973-12.936 31.717-21.182 43.845-10.519 15.474-20.454 30.09-12.001 46.997 2.222 4.446 4.994 8.609 7.929 13.016 11.702 17.575 23.771 35.713-2.698 72.836-24.805-24.687-41.753-56.478-48.322-92.023zm280.048 175.553c-55.538 10.255-109.062-26.585-119.317-82.121-10.254-55.536 26.587-109.062 82.121-119.316 55.535-10.255 109.063 26.584 119.318 82.121 10.254 55.536-26.585 109.062-82.122 119.316zm173.464 87.561l-3.78 3.779a6.078 6.078 0 0 1-4.328 1.792 6.082 6.082 0 0 1-4.328-1.792l-68.564-68.563a6.08 6.08 0 0 1-1.792-4.328c0-1.635.637-3.172 1.793-4.329l3.777-3.777c1.195-1.194 2.762-1.79 4.329-1.79s3.135.596 4.328 1.79l68.564 68.563c2.386 2.384 2.386 6.268.001 8.655z"/></g><g fill="#fff"><path d="M335.566 300.804c-4.339 0-8.197-3.089-9.016-7.509-.855-4.607-2.533-8.898-4.99-12.754-6.53-10.268-18.104-16.642-30.21-16.642-2.189 0-4.405.204-6.585.607-4.981.918-9.774-2.375-10.695-7.363-.921-4.986 2.375-9.775 7.363-10.696a54.769 54.769 0 0 1 9.919-.912c18.327 0 35.838 9.635 45.702 25.146 3.725 5.847 6.268 12.332 7.554 19.266.926 4.986-2.368 9.778-7.354 10.702a9.276 9.276 0 0 1-1.688.155zm18.104-119.82a9.182 9.182 0 0 1-9.083-7.924c-.286-2.07-.604-4.031-.97-5.995-4.536-24.575-15.357-47.572-31.291-66.517-12.221-14.555-26.958-26.399-43.802-35.21-11.887-6.223-24.45-10.745-37.343-13.442a9.181 9.181 0 1 1 3.76-17.974c14.549 3.043 28.711 8.14 42.095 15.146 18.978 9.926 35.581 23.271 49.348 39.666 17.974 21.369 30.177 47.301 35.288 74.987.416 2.234.777 4.47 1.102 6.823a9.183 9.183 0 0 1-9.104 10.44z"/><circle cx="202.181" cy="39.717" r="9.182"/></g></svg>